<mxfile host="drawio-plugin" agent="5.0 (Windows NT 6.2; Win64; x64) AppleWebKit/537.36 (KHTML, like Gecko) Chrome/104.0.5112.102 Safari/537.36" modified="2025-06-19T16:54:00.342Z" etag="FkBejVv7WJsg4tMzcIkx" version="20.5.3" type="embed" pages="2"><diagram name="Page-1" id="8TUPWQtMKG53scj3dIdi"><mxGraphModel dx="1579" dy="923" grid="1" gridSize="10" guides="1" tooltips="1" connect="1" arrows="1" fold="1" page="1" pageScale="1" pageWidth="827" pageHeight="1169" math="0" shadow="0"><root><mxCell id="0"/><mxCell id="1" parent="0"/><mxCell id="139" value="Campaign&lt;br&gt;(with IsFinalStand checked)" style="rounded=0;whiteSpace=wrap;html=1;fillColor=#1ba1e2;fontColor=#ffffff;strokeColor=#006EAF;" parent="1" vertex="1"><mxGeometry x="40" y="40" width="120" height="60" as="geometry"/></mxCell><mxCell id="152" style="edgeStyle=orthogonalEdgeStyle;rounded=0;orthogonalLoop=1;jettySize=auto;html=1;exitX=0.5;exitY=0;exitDx=0;exitDy=0;entryX=0.5;entryY=1;entryDx=0;entryDy=0;" parent="1" source="140" target="147" edge="1"><mxGeometry relative="1" as="geometry"/></mxCell><mxCell id="157" style="edgeStyle=orthogonalEdgeStyle;rounded=0;orthogonalLoop=1;jettySize=auto;html=1;exitX=0.5;exitY=1;exitDx=0;exitDy=0;" parent="1" source="140" target="156" edge="1"><mxGeometry relative="1" as="geometry"/></mxCell><mxCell id="140" value="FS Config 1" style="rounded=0;whiteSpace=wrap;html=1;fillColor=#008a00;fontColor=#ffffff;strokeColor=#005700;" parent="1" vertex="1"><mxGeometry x="40" y="280" width="120" height="60" as="geometry"/></mxCell><mxCell id="151" style="edgeStyle=orthogonalEdgeStyle;rounded=0;orthogonalLoop=1;jettySize=auto;html=1;exitX=0.5;exitY=0;exitDx=0;exitDy=0;entryX=0.5;entryY=1;entryDx=0;entryDy=0;" parent="1" source="141" target="147" edge="1"><mxGeometry relative="1" as="geometry"/></mxCell><mxCell id="158" style="edgeStyle=orthogonalEdgeStyle;rounded=0;orthogonalLoop=1;jettySize=auto;html=1;exitX=0.5;exitY=1;exitDx=0;exitDy=0;entryX=0.5;entryY=0;entryDx=0;entryDy=0;" parent="1" source="141" target="156" edge="1"><mxGeometry relative="1" as="geometry"/></mxCell><mxCell id="141" value="FS Config 2" style="rounded=0;whiteSpace=wrap;html=1;fillColor=#008a00;fontColor=#ffffff;strokeColor=#005700;" parent="1" vertex="1"><mxGeometry x="180" y="280" width="120" height="60" as="geometry"/></mxCell><mxCell id="150" style="edgeStyle=orthogonalEdgeStyle;rounded=0;orthogonalLoop=1;jettySize=auto;html=1;exitX=0.5;exitY=0;exitDx=0;exitDy=0;entryX=0.5;entryY=1;entryDx=0;entryDy=0;" parent="1" source="147" target="139" edge="1"><mxGeometry relative="1" as="geometry"/></mxCell><mxCell id="147" value="&lt;div style=&quot;background-color: rgb(30, 31, 34); color: rgb(188, 190, 196); font-family: &amp;quot;JetBrains Mono&amp;quot;, monospace;&quot;&gt;FinalStandCampaignSpecific&lt;/div&gt;" style="shape=trapezoid;perimeter=trapezoidPerimeter;whiteSpace=wrap;html=1;fixedSize=1;" parent="1" vertex="1"><mxGeometry x="40" y="150" width="120" height="60" as="geometry"/></mxCell><mxCell id="168" style="edgeStyle=orthogonalEdgeStyle;rounded=0;orthogonalLoop=1;jettySize=auto;html=1;exitX=0.5;exitY=1;exitDx=0;exitDy=0;entryX=0.5;entryY=1;entryDx=0;entryDy=0;" parent="1" edge="1"><mxGeometry relative="1" as="geometry"><mxPoint x="90" y="620" as="sourcePoint"/><mxPoint x="540" y="620" as="targetPoint"/><Array as="points"><mxPoint x="90" y="640"/><mxPoint x="540" y="640"/></Array></mxGeometry></mxCell><mxCell id="177" style="edgeStyle=orthogonalEdgeStyle;rounded=0;orthogonalLoop=1;jettySize=auto;html=1;exitX=0.25;exitY=1;exitDx=0;exitDy=0;entryX=0.5;entryY=0;entryDx=0;entryDy=0;" parent="1" source="153" target="174" edge="1"><mxGeometry relative="1" as="geometry"/></mxCell><mxCell id="153" value="A1 FS Sector" style="rounded=0;whiteSpace=wrap;html=1;fillColor=#60a917;fontColor=#ffffff;strokeColor=#2D7600;" parent="1" vertex="1"><mxGeometry x="30" y="560" width="120" height="60" as="geometry"/></mxCell><mxCell id="169" style="edgeStyle=orthogonalEdgeStyle;rounded=0;orthogonalLoop=1;jettySize=auto;html=1;exitX=0.5;exitY=1;exitDx=0;exitDy=0;entryX=0.5;entryY=1;entryDx=0;entryDy=0;" parent="1" source="154" edge="1"><mxGeometry relative="1" as="geometry"><mxPoint x="540" y="620" as="targetPoint"/><Array as="points"><mxPoint x="230" y="640"/><mxPoint x="540" y="640"/></Array></mxGeometry></mxCell><mxCell id="178" style="edgeStyle=orthogonalEdgeStyle;rounded=0;orthogonalLoop=1;jettySize=auto;html=1;exitX=0.25;exitY=1;exitDx=0;exitDy=0;entryX=0.5;entryY=0;entryDx=0;entryDy=0;" parent="1" source="154" target="175" edge="1"><mxGeometry relative="1" as="geometry"/></mxCell><mxCell id="154" value="A2 FS Sector" style="rounded=0;whiteSpace=wrap;html=1;fillColor=#60a917;fontColor=#ffffff;strokeColor=#2D7600;" parent="1" vertex="1"><mxGeometry x="170" y="560" width="120" height="60" as="geometry"/></mxCell><mxCell id="170" style="edgeStyle=orthogonalEdgeStyle;rounded=0;orthogonalLoop=1;jettySize=auto;html=1;exitX=0.5;exitY=1;exitDx=0;exitDy=0;entryX=0.5;entryY=1;entryDx=0;entryDy=0;" parent="1" source="155" edge="1"><mxGeometry relative="1" as="geometry"><mxPoint x="540" y="620" as="targetPoint"/><Array as="points"><mxPoint x="370" y="640"/><mxPoint x="540" y="640"/></Array></mxGeometry></mxCell><mxCell id="179" style="edgeStyle=orthogonalEdgeStyle;rounded=0;orthogonalLoop=1;jettySize=auto;html=1;exitX=0.25;exitY=1;exitDx=0;exitDy=0;entryX=0.5;entryY=1;entryDx=0;entryDy=0;" parent="1" source="155" target="176" edge="1"><mxGeometry relative="1" as="geometry"/></mxCell><mxCell id="155" value="A3 FS Sector" style="rounded=0;whiteSpace=wrap;html=1;fillColor=#60a917;fontColor=#ffffff;strokeColor=#2D7600;" parent="1" vertex="1"><mxGeometry x="310" y="560" width="120" height="60" as="geometry"/></mxCell><mxCell id="159" style="edgeStyle=orthogonalEdgeStyle;rounded=0;orthogonalLoop=1;jettySize=auto;html=1;exitX=0.5;exitY=1;exitDx=0;exitDy=0;entryX=0.5;entryY=0;entryDx=0;entryDy=0;" parent="1" source="156" edge="1"><mxGeometry relative="1" as="geometry"><mxPoint x="90" y="560" as="targetPoint"/></mxGeometry></mxCell><mxCell id="160" style="edgeStyle=orthogonalEdgeStyle;rounded=0;orthogonalLoop=1;jettySize=auto;html=1;exitX=0.5;exitY=1;exitDx=0;exitDy=0;entryX=0.5;entryY=0;entryDx=0;entryDy=0;" parent="1" source="156" target="154" edge="1"><mxGeometry relative="1" as="geometry"/></mxCell><mxCell id="161" style="edgeStyle=orthogonalEdgeStyle;rounded=0;orthogonalLoop=1;jettySize=auto;html=1;exitX=0.5;exitY=1;exitDx=0;exitDy=0;" parent="1" source="156" target="155" edge="1"><mxGeometry relative="1" as="geometry"/></mxCell><mxCell id="156" value="&lt;div style=&quot;background-color: rgb(30, 31, 34); color: rgb(188, 190, 196); font-family: &amp;quot;JetBrains Mono&amp;quot;, monospace;&quot;&gt;FinalStandSectorSelector&lt;/div&gt;" style="shape=trapezoid;perimeter=trapezoidPerimeter;whiteSpace=wrap;html=1;fixedSize=1;" parent="1" vertex="1"><mxGeometry x="100" y="440" width="120" height="60" as="geometry"/></mxCell><mxCell id="172" style="edgeStyle=orthogonalEdgeStyle;rounded=0;orthogonalLoop=1;jettySize=auto;html=1;exitX=0.5;exitY=0;exitDx=0;exitDy=0;entryX=0.75;entryY=1;entryDx=0;entryDy=0;" parent="1" source="162" target="140" edge="1"><mxGeometry relative="1" as="geometry"><Array as="points"><mxPoint x="550" y="360"/><mxPoint x="130" y="360"/></Array></mxGeometry></mxCell><mxCell id="173" style="edgeStyle=orthogonalEdgeStyle;rounded=0;orthogonalLoop=1;jettySize=auto;html=1;exitX=0.5;exitY=0;exitDx=0;exitDy=0;entryX=0.75;entryY=1;entryDx=0;entryDy=0;" parent="1" source="162" target="141" edge="1"><mxGeometry relative="1" as="geometry"><Array as="points"><mxPoint x="550" y="360"/><mxPoint x="270" y="360"/></Array></mxGeometry></mxCell><mxCell id="162" value="&lt;div style=&quot;background-color: rgb(30, 31, 34); color: rgb(188, 190, 196); font-family: &amp;quot;JetBrains Mono&amp;quot;, monospace;&quot;&gt;FinalStandConfigSpecific&lt;/div&gt;" style="shape=trapezoid;perimeter=trapezoidPerimeter;whiteSpace=wrap;html=1;fixedSize=1;" parent="1" vertex="1"><mxGeometry x="480" y="560" width="120" height="60" as="geometry"/></mxCell><mxCell id="174" value="A1 Sector (native definition of sector)" style="rounded=0;whiteSpace=wrap;html=1;fillColor=#157CAD;fontColor=#ffffff;strokeColor=#006EAF;" parent="1" vertex="1"><mxGeometry x="30" y="700" width="120" height="60" as="geometry"/></mxCell><mxCell id="175" value="A1 Sector (native definition of sector)" style="rounded=0;whiteSpace=wrap;html=1;fillColor=#157CAD;fontColor=#ffffff;strokeColor=#006EAF;" parent="1" vertex="1"><mxGeometry x="170" y="700" width="120" height="60" as="geometry"/></mxCell><mxCell id="176" value="A1 Sector (native definition of sector)" style="rounded=0;whiteSpace=wrap;html=1;fillColor=#157CAD;fontColor=#ffffff;strokeColor=#006EAF;direction=west;" parent="1" vertex="1"><mxGeometry x="310" y="700" width="120" height="60" as="geometry"/></mxCell></root></mxGraphModel></diagram><diagram id="ibczgWjWCnDD7kmpNIuv" name="Quest"><mxGraphModel dx="672" dy="393" grid="1" gridSize="10" guides="1" tooltips="1" connect="1" arrows="1" fold="1" page="1" pageScale="1" pageWidth="850" pageHeight="1100" math="0" shadow="0"><root><mxCell id="0"/><mxCell id="1" parent="0"/><mxCell id="kj1Jgs_vrcuyh0Z1Sw2g-1" value="Enemy wave is approaching, prepare your defense!" style="rounded=0;whiteSpace=wrap;html=1;fillColor=#1ba1e2;fontColor=#ffffff;strokeColor=#006EAF;" vertex="1" parent="1"><mxGeometry x="40" y="160" width="120" height="60" as="geometry"/></mxCell><mxCell id="kj1Jgs_vrcuyh0Z1Sw2g-4" style="edgeStyle=orthogonalEdgeStyle;rounded=0;orthogonalLoop=1;jettySize=auto;html=1;exitX=0.5;exitY=1;exitDx=0;exitDy=0;entryX=0.5;entryY=0;entryDx=0;entryDy=0;fillColor=#60a917;strokeColor=#2D7600;" edge="1" parent="1" source="kj1Jgs_vrcuyh0Z1Sw2g-2" target="kj1Jgs_vrcuyh0Z1Sw2g-1"><mxGeometry relative="1" as="geometry"/></mxCell><mxCell id="kj1Jgs_vrcuyh0Z1Sw2g-2" value="HasFinalStandWaveScheduled(1)" style="shape=hexagon;perimeter=hexagonPerimeter2;whiteSpace=wrap;html=1;fixedSize=1;" vertex="1" parent="1"><mxGeometry x="40" y="40" width="120" height="80" as="geometry"/></mxCell><mxCell id="kj1Jgs_vrcuyh0Z1Sw2g-9" style="edgeStyle=orthogonalEdgeStyle;rounded=0;orthogonalLoop=1;jettySize=auto;html=1;exitX=0.5;exitY=1;exitDx=0;exitDy=0;entryX=0.5;entryY=0;entryDx=0;entryDy=0;fillColor=#60a917;strokeColor=#2D7600;" edge="1" parent="1" source="kj1Jgs_vrcuyh0Z1Sw2g-5" target="kj1Jgs_vrcuyh0Z1Sw2g-6"><mxGeometry relative="1" as="geometry"/></mxCell><mxCell id="kj1Jgs_vrcuyh0Z1Sw2g-10" style="edgeStyle=orthogonalEdgeStyle;rounded=0;orthogonalLoop=1;jettySize=auto;html=1;exitX=0;exitY=0.5;exitDx=0;exitDy=0;entryX=1;entryY=0.5;entryDx=0;entryDy=0;fillColor=#a20025;strokeColor=#6F0000;" edge="1" parent="1" source="kj1Jgs_vrcuyh0Z1Sw2g-5" target="kj1Jgs_vrcuyh0Z1Sw2g-1"><mxGeometry relative="1" as="geometry"/></mxCell><mxCell id="kj1Jgs_vrcuyh0Z1Sw2g-5" value="HasFinalStandWaveStarted(1)" style="shape=hexagon;perimeter=hexagonPerimeter2;whiteSpace=wrap;html=1;fixedSize=1;" vertex="1" parent="1"><mxGeometry x="240" y="40" width="120" height="80" as="geometry"/></mxCell><mxCell id="kj1Jgs_vrcuyh0Z1Sw2g-6" value="Enemy assault in progress!" style="rounded=0;whiteSpace=wrap;html=1;fillColor=#1ba1e2;fontColor=#ffffff;strokeColor=#006EAF;" vertex="1" parent="1"><mxGeometry x="240" y="160" width="120" height="60" as="geometry"/></mxCell></root></mxGraphModel></diagram></mxfile>